<svg id="visual" viewBox="0 0 960 540" width="960" height="540" xmlns="http://www.w3.org/2000/svg" xmlns:xlink="http://www.w3.org/1999/xlink" version="1.1"><rect x="0" y="0" width="960" height="540" fill="#f74f40"></rect><defs><linearGradient id="grad1_0" x1="43.8%" y1="100%" x2="100%" y2="0%"><stop offset="14.444444444444446%" stop-color="#fcaf3c" stop-opacity="1"></stop><stop offset="85.55555555555554%" stop-color="#fcaf3c" stop-opacity="1"></stop></linearGradient></defs><defs><linearGradient id="grad1_1" x1="43.8%" y1="100%" x2="100%" y2="0%"><stop offset="14.444444444444446%" stop-color="#fcaf3c" stop-opacity="1"></stop><stop offset="85.55555555555554%" stop-color="#fe9936" stop-opacity="1"></stop></linearGradient></defs><defs><linearGradient id="grad1_2" x1="43.8%" y1="100%" x2="100%" y2="0%"><stop offset="14.444444444444446%" stop-color="#fd8236" stop-opacity="1"></stop><stop offset="85.55555555555554%" stop-color="#fe9936" stop-opacity="1"></stop></linearGradient></defs><defs><linearGradient id="grad1_3" x1="43.8%" y1="100%" x2="100%" y2="0%"><stop offset="14.444444444444446%" stop-color="#fd8236" stop-opacity="1"></stop><stop offset="85.55555555555554%" stop-color="#fb6a3a" stop-opacity="1"></stop></linearGradient></defs><defs><linearGradient id="grad1_4" x1="43.8%" y1="100%" x2="100%" y2="0%"><stop offset="14.444444444444446%" stop-color="#f74f40" stop-opacity="1"></stop><stop offset="85.55555555555554%" stop-color="#fb6a3a" stop-opacity="1"></stop></linearGradient></defs><defs><linearGradient id="grad2_0" x1="0%" y1="100%" x2="56.3%" y2="0%"><stop offset="14.444444444444446%" stop-color="#fcaf3c" stop-opacity="1"></stop><stop offset="85.55555555555554%" stop-color="#fcaf3c" stop-opacity="1"></stop></linearGradient></defs><defs><linearGradient id="grad2_1" x1="0%" y1="100%" x2="56.3%" y2="0%"><stop offset="14.444444444444446%" stop-color="#fe9936" stop-opacity="1"></stop><stop offset="85.55555555555554%" stop-color="#fcaf3c" stop-opacity="1"></stop></linearGradient></defs><defs><linearGradient id="grad2_2" x1="0%" y1="100%" x2="56.3%" y2="0%"><stop offset="14.444444444444446%" stop-color="#fe9936" stop-opacity="1"></stop><stop offset="85.55555555555554%" stop-color="#fd8236" stop-opacity="1"></stop></linearGradient></defs><defs><linearGradient id="grad2_3" x1="0%" y1="100%" x2="56.3%" y2="0%"><stop offset="14.444444444444446%" stop-color="#fb6a3a" stop-opacity="1"></stop><stop offset="85.55555555555554%" stop-color="#fd8236" stop-opacity="1"></stop></linearGradient></defs><defs><linearGradient id="grad2_4" x1="0%" y1="100%" x2="56.3%" y2="0%"><stop offset="14.444444444444446%" stop-color="#fb6a3a" stop-opacity="1"></stop><stop offset="85.55555555555554%" stop-color="#f74f40" stop-opacity="1"></stop></linearGradient></defs><g transform="translate(960, 540)"><path d="M-459 0C-448.2 -82.4 -437.4 -164.7 -397.5 -229.5C-357.6 -294.3 -288.6 -341.4 -217.5 -376.7C-146.4 -412 -73.2 -435.5 0 -459L0 0Z" fill="#f95d3d"></path><path d="M-367.2 0C-358.6 -65.9 -349.9 -131.8 -318 -183.6C-286.1 -235.4 -230.9 -273.1 -174 -301.4C-117.1 -329.6 -58.6 -348.4 0 -367.2L0 0Z" fill="#fd7637"></path><path d="M-275.4 0C-268.9 -49.4 -262.4 -98.8 -238.5 -137.7C-214.6 -176.6 -173.2 -204.8 -130.5 -226C-87.8 -247.2 -43.9 -261.3 0 -275.4L0 0Z" fill="#fe8e35"></path><path d="M-183.6 0C-179.3 -32.9 -175 -65.9 -159 -91.8C-143 -117.7 -115.4 -136.6 -87 -150.7C-58.6 -164.8 -29.3 -174.2 0 -183.6L0 0Z" fill="#fda438"></path><path d="M-91.8 0C-89.6 -16.5 -87.5 -32.9 -79.5 -45.9C-71.5 -58.9 -57.7 -68.3 -43.5 -75.3C-29.3 -82.4 -14.6 -87.1 0 -91.8L0 0Z" fill="#fcaf3c"></path></g><g transform="translate(0, 0)"><path d="M459 0C449.9 85.3 440.7 170.5 397.5 229.5C354.3 288.5 276.9 321.2 205 355.1C133.1 388.9 66.5 424 0 459L0 0Z" fill="#f95d3d"></path><path d="M367.2 0C359.9 68.2 352.6 136.4 318 183.6C283.4 230.8 221.5 257 164 284.1C106.5 311.2 53.2 339.2 0 367.2L0 0Z" fill="#fd7637"></path><path d="M275.4 0C269.9 51.2 264.4 102.3 238.5 137.7C212.6 173.1 166.2 192.7 123 213C79.8 233.4 39.9 254.4 0 275.4L0 0Z" fill="#fe8e35"></path><path d="M183.6 0C179.9 34.1 176.3 68.2 159 91.8C141.7 115.4 110.8 128.5 82 142C53.2 155.6 26.6 169.6 0 183.6L0 0Z" fill="#fda438"></path><path d="M91.8 0C90 17.1 88.1 34.1 79.5 45.9C70.9 57.7 55.4 64.2 41 71C26.6 77.8 13.3 84.8 0 91.8L0 0Z" fill="#fcaf3c"></path></g></svg>